<svg width="128" height="128" viewBox="0 0 128 128" fill="none" xmlns="http://www.w3.org/2000/svg">
<g clip-path="url(#clip0_1_4)">
<path d="M65.7014 119.173C51.8534 118.177 34.4756 117.453 12.9342 117.815L10.581 115.462C10.943 93.9204 10.219 76.5426 9.22335 62.6946L14.4729 57.445C17.0977 65.5004 19.3604 74.6419 21.0801 83.9644L84.0749 20.9696C74.7524 19.2499 65.6109 16.9872 57.5555 14.3624L62.8051 9.11286C76.6531 10.1085 94.0309 10.8325 115.572 10.4705L117.925 12.8238C117.563 34.3651 118.288 51.7429 119.283 65.5909L114.034 70.8405C111.409 62.7851 109.146 53.6436 107.426 44.3211L44.4316 107.316C53.7541 109.036 62.8956 111.298 70.9509 113.923L65.7014 119.173ZM33.2989 105.596L105.707 33.1884C105.254 30.0206 104.892 26.7622 104.711 23.6849C101.634 23.5039 98.3754 23.1419 95.2075 22.6893L22.7998 95.097C23.2524 98.2649 23.6144 101.523 23.7954 104.601C26.8727 104.782 30.1311 105.144 33.2989 105.596Z" fill="black"/>
</g>
<defs>
<clipPath id="clip0_1_4">
<rect width="128" height="128" fill="white"/>
</clipPath>
</defs>
</svg>
